<?xml version="1.0" encoding="UTF-8" standalone="no"?>
<!DOCTYPE svg PUBLIC "-//W3C//DTD SVG 1.1//EN" "http://www.w3.org/Graphics/SVG/1.1/DTD/svg11.dtd">
<svg width="100%" height="100%" viewBox="0 0 747 430" version="1.1" xmlns="http://www.w3.org/2000/svg" xmlns:xlink="http://www.w3.org/1999/xlink" xml:space="preserve" xmlns:serif="http://www.serif.com/" style="fill-rule:evenodd;clip-rule:evenodd;stroke-linecap:round;stroke-linejoin:round;stroke-miterlimit:2;">
    <g transform="matrix(1,0,0,1,-26,-185)">
        <g id="curve">
            <g transform="matrix(39.7319,0,0,39.7319,-4112.27,-2367.71)">
                <path d="M119.086,68.856C118.57,70.164 117.862,71.124 117.082,71.856C116.962,71.172 116.878,70.452 116.878,69.696L116.878,69.228C117.442,69.024 118.126,68.856 118.894,68.856L119.086,68.856ZM116.038,69.804C116.038,70.692 116.146,71.64 116.314,72.492C115.714,72.912 115.138,73.116 114.682,73.116C114.238,73.116 114.01,72.876 114.01,72.396C114.01,71.436 114.886,70.26 116.038,69.6L116.038,69.804ZM120.214,68.196C120.286,68.016 120.382,67.692 120.454,67.536L119.494,67.296C119.482,67.488 119.422,67.8 119.374,67.98L119.338,68.088C119.194,68.076 119.05,68.076 118.906,68.076C118.306,68.076 117.574,68.184 116.914,68.388C116.95,67.884 116.986,67.38 117.034,66.924C118.486,66.852 120.07,66.696 121.318,66.492L121.306,65.592C120.082,65.868 118.642,66.024 117.142,66.096C117.19,65.748 117.238,65.448 117.286,65.196C117.322,65.04 117.37,64.824 117.43,64.668L116.422,64.644C116.422,64.788 116.41,65.016 116.386,65.208C116.362,65.46 116.326,65.772 116.29,66.12C116.026,66.132 115.762,66.132 115.498,66.132C114.994,66.132 113.95,66.048 113.542,65.988L113.566,66.888C114.046,66.912 114.97,66.96 115.486,66.96C115.714,66.96 115.954,66.96 116.206,66.948C116.158,67.5 116.098,68.1 116.074,68.7C114.442,69.444 113.11,71.016 113.11,72.54C113.11,73.56 113.722,74.04 114.526,74.04C115.162,74.04 115.87,73.788 116.518,73.392C116.578,73.632 116.65,73.848 116.71,74.052L117.586,73.788C117.49,73.488 117.394,73.164 117.298,72.828C118.306,71.976 119.266,70.668 119.926,68.988C121.042,69.288 121.63,70.104 121.63,71.004C121.63,72.54 120.31,73.644 118.174,73.872L118.69,74.676C121.45,74.244 122.578,72.756 122.578,71.052C122.578,69.744 121.69,68.64 120.202,68.244L120.214,68.196Z" style="fill:none;fill-rule:nonzero;stroke:white;stroke-width:0.76px;"/>
                <path d="M119.086,68.856C118.57,70.164 117.862,71.124 117.082,71.856C116.962,71.172 116.878,70.452 116.878,69.696L116.878,69.228C117.442,69.024 118.126,68.856 118.894,68.856L119.086,68.856ZM116.038,69.804C116.038,70.692 116.146,71.64 116.314,72.492C115.714,72.912 115.138,73.116 114.682,73.116C114.238,73.116 114.01,72.876 114.01,72.396C114.01,71.436 114.886,70.26 116.038,69.6L116.038,69.804ZM120.214,68.196C120.286,68.016 120.382,67.692 120.454,67.536L119.494,67.296C119.482,67.488 119.422,67.8 119.374,67.98L119.338,68.088C119.194,68.076 119.05,68.076 118.906,68.076C118.306,68.076 117.574,68.184 116.914,68.388C116.95,67.884 116.986,67.38 117.034,66.924C118.486,66.852 120.07,66.696 121.318,66.492L121.306,65.592C120.082,65.868 118.642,66.024 117.142,66.096C117.19,65.748 117.238,65.448 117.286,65.196C117.322,65.04 117.37,64.824 117.43,64.668L116.422,64.644C116.422,64.788 116.41,65.016 116.386,65.208C116.362,65.46 116.326,65.772 116.29,66.12C116.026,66.132 115.762,66.132 115.498,66.132C114.994,66.132 113.95,66.048 113.542,65.988L113.566,66.888C114.046,66.912 114.97,66.96 115.486,66.96C115.714,66.96 115.954,66.96 116.206,66.948C116.158,67.5 116.098,68.1 116.074,68.7C114.442,69.444 113.11,71.016 113.11,72.54C113.11,73.56 113.722,74.04 114.526,74.04C115.162,74.04 115.87,73.788 116.518,73.392C116.578,73.632 116.65,73.848 116.71,74.052L117.586,73.788C117.49,73.488 117.394,73.164 117.298,72.828C118.306,71.976 119.266,70.668 119.926,68.988C121.042,69.288 121.63,70.104 121.63,71.004C121.63,72.54 120.31,73.644 118.174,73.872L118.69,74.676C121.45,74.244 122.578,72.756 122.578,71.052C122.578,69.744 121.69,68.64 120.202,68.244L120.214,68.196Z" style="fill:url(#_Linear1);fill-rule:nonzero;"/>
            </g>
            <g transform="matrix(46.3393,0,0,46.3393,-12396.4,-3745.67)">
                <path d="M278.855,93.764L277.824,91.109L274.426,91.109L273.406,93.764L272.316,93.764L275.662,85.162L276.635,85.162L279.974,93.764L278.855,93.764ZM277.502,90.154L276.541,87.559L276.131,86.275C276.013,86.744 275.89,87.172 275.762,87.559L274.789,90.154L277.502,90.154Z" style="fill:none;fill-rule:nonzero;stroke:white;stroke-width:0.65px;"/>
                <path d="M278.855,93.764L277.824,91.109L274.426,91.109L273.406,93.764L272.316,93.764L275.662,85.162L276.635,85.162L279.974,93.764L278.855,93.764ZM277.502,90.154L276.541,87.559L276.131,86.275C276.013,86.744 275.89,87.172 275.762,87.559L274.789,90.154L277.502,90.154Z" style="fill:url(#_Linear2);fill-rule:nonzero;"/>
            </g>
            <g transform="matrix(39.7319,0,0,39.7319,-4452.97,-2367.74)">
                <path d="M119.086,68.856C118.57,70.164 117.862,71.124 117.082,71.856C116.962,71.172 116.878,70.452 116.878,69.696L116.878,69.228C117.442,69.024 118.126,68.856 118.894,68.856L119.086,68.856ZM116.038,69.804C116.038,70.692 116.146,71.64 116.314,72.492C115.714,72.912 115.138,73.116 114.682,73.116C114.238,73.116 114.01,72.876 114.01,72.396C114.01,71.436 114.886,70.26 116.038,69.6L116.038,69.804ZM120.214,68.196C120.286,68.016 120.382,67.692 120.454,67.536L119.494,67.296C119.482,67.488 119.422,67.8 119.374,67.98L119.338,68.088C119.194,68.076 119.05,68.076 118.906,68.076C118.306,68.076 117.574,68.184 116.914,68.388C116.95,67.884 116.986,67.38 117.034,66.924C118.486,66.852 120.07,66.696 121.318,66.492L121.306,65.592C120.082,65.868 118.642,66.024 117.142,66.096C117.19,65.748 117.238,65.448 117.286,65.196C117.322,65.04 117.37,64.824 117.43,64.668L116.422,64.644C116.422,64.788 116.41,65.016 116.386,65.208C116.362,65.46 116.326,65.772 116.29,66.12C116.026,66.132 115.762,66.132 115.498,66.132C114.994,66.132 113.95,66.048 113.542,65.988L113.566,66.888C114.046,66.912 114.97,66.96 115.486,66.96C115.714,66.96 115.954,66.96 116.206,66.948C116.158,67.5 116.098,68.1 116.074,68.7C114.442,69.444 113.11,71.016 113.11,72.54C113.11,73.56 113.722,74.04 114.526,74.04C115.162,74.04 115.87,73.788 116.518,73.392C116.578,73.632 116.65,73.848 116.71,74.052L117.586,73.788C117.49,73.488 117.394,73.164 117.298,72.828C118.306,71.976 119.266,70.668 119.926,68.988C121.042,69.288 121.63,70.104 121.63,71.004C121.63,72.54 120.31,73.644 118.174,73.872L118.69,74.676C121.45,74.244 122.578,72.756 122.578,71.052C122.578,69.744 121.69,68.64 120.202,68.244L120.214,68.196Z" style="fill:none;fill-rule:nonzero;stroke:white;stroke-width:0.76px;"/>
                <path d="M119.086,68.856C118.57,70.164 117.862,71.124 117.082,71.856C116.962,71.172 116.878,70.452 116.878,69.696L116.878,69.228C117.442,69.024 118.126,68.856 118.894,68.856L119.086,68.856ZM116.038,69.804C116.038,70.692 116.146,71.64 116.314,72.492C115.714,72.912 115.138,73.116 114.682,73.116C114.238,73.116 114.01,72.876 114.01,72.396C114.01,71.436 114.886,70.26 116.038,69.6L116.038,69.804ZM120.214,68.196C120.286,68.016 120.382,67.692 120.454,67.536L119.494,67.296C119.482,67.488 119.422,67.8 119.374,67.98L119.338,68.088C119.194,68.076 119.05,68.076 118.906,68.076C118.306,68.076 117.574,68.184 116.914,68.388C116.95,67.884 116.986,67.38 117.034,66.924C118.486,66.852 120.07,66.696 121.318,66.492L121.306,65.592C120.082,65.868 118.642,66.024 117.142,66.096C117.19,65.748 117.238,65.448 117.286,65.196C117.322,65.04 117.37,64.824 117.43,64.668L116.422,64.644C116.422,64.788 116.41,65.016 116.386,65.208C116.362,65.46 116.326,65.772 116.29,66.12C116.026,66.132 115.762,66.132 115.498,66.132C114.994,66.132 113.95,66.048 113.542,65.988L113.566,66.888C114.046,66.912 114.97,66.96 115.486,66.96C115.714,66.96 115.954,66.96 116.206,66.948C116.158,67.5 116.098,68.1 116.074,68.7C114.442,69.444 113.11,71.016 113.11,72.54C113.11,73.56 113.722,74.04 114.526,74.04C115.162,74.04 115.87,73.788 116.518,73.392C116.578,73.632 116.65,73.848 116.71,74.052L117.586,73.788C117.49,73.488 117.394,73.164 117.298,72.828C118.306,71.976 119.266,70.668 119.926,68.988C121.042,69.288 121.63,70.104 121.63,71.004C121.63,72.54 120.31,73.644 118.174,73.872L118.69,74.676C121.45,74.244 122.578,72.756 122.578,71.052C122.578,69.744 121.69,68.64 120.202,68.244L120.214,68.196Z" style="fill:url(#_Linear3);fill-rule:nonzero;"/>
            </g>
        </g>
    </g>
    <defs>
        <linearGradient id="_Linear1" x1="0" y1="0" x2="1" y2="0" gradientUnits="userSpaceOnUse" gradientTransform="matrix(9.468,0,0,10.032,113.11,69.6597)"><stop offset="0" style="stop-color:rgb(100,100,100);stop-opacity:1"/><stop offset="1" style="stop-color:rgb(200,200,200);stop-opacity:1"/></linearGradient>
        <linearGradient id="_Linear2" x1="0" y1="0" x2="1" y2="0" gradientUnits="userSpaceOnUse" gradientTransform="matrix(7.6582,0,0,8.60156,272.316,89.4629)"><stop offset="0" style="stop-color:rgb(50,50,50);stop-opacity:1"/><stop offset="1" style="stop-color:rgb(150,150,150);stop-opacity:1"/></linearGradient>
        <linearGradient id="_Linear3" x1="0" y1="0" x2="1" y2="0" gradientUnits="userSpaceOnUse" gradientTransform="matrix(9.468,0,0,10.032,113.11,69.6597)"><stop offset="0" style="stop-color:black;stop-opacity:1"/><stop offset="1" style="stop-color:rgb(100,100,100);stop-opacity:1"/></linearGradient>
    </defs>
</svg>
